<?xml version="1.0" encoding="utf-8"?>
<!-- Generator: Adobe Illustrator 25.2.1, SVG Export Plug-In . SVG Version: 6.00 Build 0)  -->
<svg version="1.1" id="Layer_1" xmlns="http://www.w3.org/2000/svg" xmlns:xlink="http://www.w3.org/1999/xlink" x="0px" y="0px"
	 viewBox="0 0 90.7 119.1" style="enable-background:new 0 0 90.7 119.1;" xml:space="preserve">
<style type="text/css">
	.st0{fill:#273885;}
	.st1{fill:#C5C5C4;}
	.st2{fill:#007653;}
	.st3{fill:#87C300;}
</style>
<g>
	<path class="st0" d="M49.6,103.4h-6.3c-3.7,0-6.6-3-6.6-6.7V82.9c-2.5-1.2-4.1-3.7-4.1-6.5V58c0-4,3.2-7.2,7.2-7.2h0.4
		c-0.9-1.3-1.4-2.8-1.4-4.4c0-4.2,3.4-7.7,7.7-7.7c4.2,0,7.7,3.4,7.7,7.7c0,1.6-0.5,3.1-1.4,4.4h0.4c4,0,7.2,3.2,7.2,7.2v18.4
		c0,2.8-1.6,5.3-4.1,6.5v13.9C56.2,100.4,53.2,103.4,49.6,103.4z M39.8,52.8c-2.9,0-5.2,2.3-5.2,5.2v18.4c0,2.2,1.4,4.1,3.4,4.9
		c0.4,0.1,0.7,0.5,0.7,0.9v14.6c0,2.6,2.1,4.7,4.6,4.7h6.3c2.6,0,4.7-2.1,4.7-4.7V82.2c0-0.4,0.3-0.8,0.7-0.9c2-0.7,3.4-2.7,3.4-4.9
		V58c0-2.9-2.3-5.2-5.2-5.2h-2.8c-0.4,0-0.8-0.3-1-0.7s0-0.9,0.4-1.1c1.5-1.1,2.3-2.8,2.3-4.6c0-3.1-2.5-5.7-5.7-5.7
		s-5.7,2.5-5.7,5.7c0,1.8,0.9,3.5,2.3,4.6c0.4,0.3,0.5,0.7,0.4,1.1s-0.5,0.7-1,0.7H39.8z"/>
</g>
<g>
	<path class="st1" d="M34.7,31.2c-0.1,0-0.3,0-0.4-0.1c-0.5-0.2-0.7-0.8-0.5-1.3c1.1-2.7,3.7-4.4,6.6-4.4h0.4
		c-0.9-1.3-1.4-2.8-1.4-4.4c0-4.2,3.4-7.7,7.7-7.7c4.2,0,7.7,3.4,7.7,7.7c0,1.6-0.5,3.1-1.4,4.4h0.4c1.9,0,3.7,0.8,5.1,2.1
		c0.4,0.4,0.4,1,0,1.4c-0.4,0.4-1,0.4-1.4,0c-1-1-2.3-1.5-3.7-1.5H51c-0.4,0-0.8-0.3-1-0.7s0-0.9,0.4-1.1c1.5-1.1,2.3-2.8,2.3-4.6
		c0-3.1-2.5-5.7-5.7-5.7c-3.1,0-5.7,2.5-5.7,5.7c0,1.8,0.9,3.5,2.3,4.6c0.4,0.3,0.5,0.7,0.4,1.1s-0.5,0.7-1,0.7h-2.7
		c-2.1,0-4,1.2-4.8,3.2C35.5,30.9,35.1,31.2,34.7,31.2z"/>
</g>
<g>
	<path class="st2" d="M32.2,93.1h-6.3c-3.7,0-6.6-3-6.6-6.7V72.5c-2.5-1.2-4.1-3.7-4.1-6.5V47.6c0-4,3.2-7.2,7.2-7.2h0.4
		c-0.9-1.3-1.4-2.8-1.4-4.4c0-4.2,3.4-7.7,7.7-7.7s7.7,3.4,7.7,7.7c0,1.6-0.5,3.1-1.4,4.4h0.4c0.6,0,1,0.4,1,1s-0.4,1-1,1h-2.8
		c-0.4,0-0.8-0.3-1-0.7s0-0.9,0.4-1.1c1.5-1.1,2.3-2.8,2.3-4.6c0-3.1-2.5-5.7-5.7-5.7c-3.1,0-5.7,2.5-5.7,5.7c0,1.8,0.9,3.5,2.3,4.6
		c0.4,0.3,0.5,0.7,0.4,1.1s-0.5,0.7-1,0.7h-2.7c-2.9,0-5.2,2.3-5.2,5.2v18.4c0,2.2,1.4,4.1,3.4,4.9c0.4,0.1,0.7,0.5,0.7,0.9v14.6
		c0,2.6,2.1,4.7,4.6,4.7h6.3c0.6,0,1,0.4,1,1S32.7,93.1,32.2,93.1z"/>
</g>
<g>
	<path class="st3" d="M67.2,93.1h-6.3c-0.6,0-1-0.4-1-1s0.4-1,1-1h6.3c2.6,0,4.7-2.1,4.7-4.7V71.9c0-0.4,0.3-0.8,0.7-0.9
		c2-0.7,3.4-2.7,3.4-4.9V47.6c0-2.9-2.3-5.2-5.2-5.2h-2.8c-0.4,0-0.8-0.3-1-0.7s0-0.9,0.4-1.1c1.5-1.1,2.3-2.8,2.3-4.6
		c0-3.1-2.5-5.7-5.7-5.7s-5.7,2.5-5.7,5.7c0,1.8,0.9,3.5,2.3,4.6c0.4,0.3,0.5,0.7,0.4,1.1s-0.5,0.7-1,0.7h-2.7c-0.6,0-1-0.4-1-1
		s0.4-1,1-1h0.4c-0.9-1.3-1.4-2.8-1.4-4.4c0-4.2,3.4-7.7,7.7-7.7c4.2,0,7.7,3.4,7.7,7.7c0,1.6-0.5,3.1-1.4,4.4h0.4
		c4,0,7.2,3.2,7.2,7.2v18.4c0,2.8-1.6,5.3-4.1,6.5v13.9C73.9,90.1,70.9,93.1,67.2,93.1z"/>
</g>
</svg>
