<?xml version="1.0" encoding="utf-8"?>
<!-- Generator: Adobe Illustrator 25.2.1, SVG Export Plug-In . SVG Version: 6.00 Build 0)  -->
<svg version="1.1" id="Layer_1" xmlns="http://www.w3.org/2000/svg" xmlns:xlink="http://www.w3.org/1999/xlink" x="0px" y="0px"
	 viewBox="0 0 90.7 119.1" style="enable-background:new 0 0 90.7 119.1;" xml:space="preserve">
<style type="text/css">
	.st0{fill:#273885;}
	.st1{fill:#87C300;}
	.st2{fill:#007653;}
	.st3{fill:#C5C5C4;}
</style>
<path class="st0" d="M38.5,86.6l-28.3-19v-5.1c2.2-0.7,3.8-2.7,3.8-5.1c0-2.9-2.4-5.3-5.3-5.3s-5.3,2.4-5.3,5.3
	c0,2.4,1.6,4.4,3.8,5.1v5.9c0,0.5,0.3,1,0.7,1.3l28.3,19v30.8h3V87.8C39.2,87.3,38.9,86.9,38.5,86.6z M6.3,57.3c0-1.3,1-2.3,2.3-2.3
	s2.3,1,2.3,2.3s-1,2.3-2.3,2.3S6.3,58.6,6.3,57.3z"/>
<path class="st1" d="M45.5,80.7l-17-16.5V49.2c2.3-0.6,4.1-2.7,4.1-5.2c0-2.9-2.4-5.3-5.3-5.3S22,41.1,22,44.1c0,2.3,1.5,4.3,3.5,5
	v15.7c0,0.4,0.2,0.8,0.5,1.1l17,16.5v37h3V81.8C46,81.4,45.8,81,45.5,80.7z M27.3,41.8c1.3,0,2.3,1,2.3,2.3s-1,2.3-2.3,2.3
	s-2.3-1-2.3-2.3S26,41.8,27.3,41.8z"/>
<path d="M56.2,26.6c0-2.9-2.4-5.3-5.3-5.3s-5.3,2.4-5.3,5.3c0,2.4,1.7,4.5,3.9,5.1v87.7h3V31.7C54.6,31,56.2,29,56.2,26.6z
	 M50.8,28.9c-1.3,0-2.3-1-2.3-2.3s1-2.3,2.3-2.3s2.3,1,2.3,2.3S52.1,28.9,50.8,28.9z"/>
<path class="st2" d="M69.8,32.2L69.8,32.2c-0.9-1.1-2.2-1.8-3.6-1.9c-1.4-0.1-2.8,0.3-3.9,1.2c-1.1,0.9-1.8,2.2-1.9,3.6
	s0.3,2.8,1.2,3.9c0.6,0.8,1.4,1.3,2.3,1.6v23.1l-6.6,6.6c-0.3,0.3-0.4,0.7-0.4,1.1v48h3V72.1l6.6-6.6c0.3-0.3,0.4-0.7,0.4-1.1V40.8
	c0.8-0.2,1.5-0.5,2.2-1.1C71.4,37.8,71.7,34.4,69.8,32.2z M67.2,37.4c-1,0.8-2.4,0.7-3.2-0.3c-0.4-0.5-0.6-1.1-0.5-1.7
	s0.3-1.2,0.8-1.5c0.4-0.3,0.9-0.5,1.5-0.5c0.1,0,0.1,0,0.2,0c0.6,0.1,1.2,0.3,1.5,0.8C68.3,35.1,68.2,36.6,67.2,37.4z"/>
<path class="st3" d="M87.6,34c0.1-1.4-0.3-2.8-1.2-3.9h0c-1.9-2.2-5.2-2.5-7.5-0.7c-2.2,1.9-2.5,5.3-0.7,7.5
	c0.7,0.8,1.6,1.4,2.5,1.7v26.6L64.1,88.7c-0.2,0.3-0.3,0.6-0.3,0.9v29.8h3V90.1l16.6-23.5c0.2-0.3,0.3-0.6,0.3-0.9v-27
	c0.7-0.2,1.4-0.5,1.9-1C86.8,36.7,87.5,35.4,87.6,34z M83.8,35.3c-1,0.8-2.4,0.7-3.2-0.3c-0.8-1-0.7-2.4,0.3-3.2
	c0.4-0.4,0.9-0.5,1.5-0.5c0.7,0,1.3,0.3,1.7,0.8c0.4,0.5,0.6,1.1,0.5,1.7S84.2,34.9,83.8,35.3z"/>
</svg>
