<?xml version="1.0" encoding="UTF-8"?>
<svg width="30px" height="29px" viewBox="0 0 30 29" version="1.1" xmlns="http://www.w3.org/2000/svg" xmlns:xlink="http://www.w3.org/1999/xlink">
    <!-- Generator: Sketch 53.2 (72643) - https://sketchapp.com -->
    <title>Fill 1</title>
    <desc>Created with Sketch.</desc>
    <g id="Page-1" stroke="none" stroke-width="1" fill="none" fill-rule="evenodd">
        <g id="Artboard" transform="translate(-12.000000, -3.000000)" fill="#94C11F">
            <path d="M21.9798423,15.1477707 C21.4416895,15.6634579 20.8157168,15.9197698 20.1029452,15.9197698 C19.3666869,15.9197698 18.7366295,15.6593733 18.2137942,15.136538 C17.698107,14.5983852 17.4397529,13.9713913 17.4397529,13.2514716 C17.4397529,12.5172556 17.698107,11.8933252 18.2137942,11.377638 C18.7529681,10.862972 19.3779197,10.605639 20.0917124,10.605639 C20.842267,10.605639 21.4753879,10.8670566 21.9910751,11.3888708 C22.5077834,11.9035368 22.7651164,12.5356365 22.7651164,13.2861911 C22.7651164,14.0050897 22.5026776,14.6259566 21.9798423,15.1477707 M31.2305554,31.321967 L31.2305554,22.8698032 C31.2305554,22.310206 31.1600951,21.9201219 31.0201958,21.7005719 C30.8792754,21.4810219 30.6352175,21.3717575 30.287001,21.3717575 C29.4751766,21.3717575 29.0687539,21.9732223 29.0687539,23.1771732 L29.0687539,31.8703314 L29.094283,31.88667 C29.9459327,31.7518765 30.4350696,31.5987021 31.2305554,31.321967 M24.4939449,31.9704053 L24.4939449,17.0900222 L29.0687539,17.0900222 C29.0605846,17.3933076 29.0534364,17.672085 29.0452671,17.9304392 C29.038119,18.1877722 29.025865,18.4257031 29.0105476,18.6452531 L28.9656164,19.4284849 C29.7529329,17.8691694 30.9088891,17.0900222 32.4365485,17.0900222 C33.4975366,17.0900222 34.3216149,17.4494715 34.9098046,18.1683701 C35.5061637,18.8872686 35.8043432,19.8890292 35.8043432,21.1705885 L35.8043432,28.7966316 C39.0506194,26.1426297 41.1225586,22.1110793 41.1225586,17.5954978 C41.1225586,9.60183603 34.6310272,3.12255859 26.622048,3.12255859 C18.61409,3.12255859 12.1225586,9.60183603 12.1225586,17.5954978 C12.1225586,22.2775288 14.3497145,26.4387669 17.804308,29.0845995 L17.804308,17.0900222 L22.3780958,17.0900222 L22.3780958,31.4394007 C22.3780958,31.4394007 22.8580422,31.7937442 24.4939449,31.9704053" id="Fill-1"></path>
        </g>
    </g>
</svg>