<?xml version="1.0" encoding="UTF-8"?>
<svg width="7px" height="105px" viewBox="0 0 7 105" version="1.1" xmlns="http://www.w3.org/2000/svg" xmlns:xlink="http://www.w3.org/1999/xlink">
    <!-- Generator: Sketch 53.2 (72643) - https://sketchapp.com -->
    <title>Artboard</title>
    <desc>Created with Sketch.</desc>
    <g id="Artboard" stroke="none" stroke-width="1" fill="none" fill-rule="evenodd">
        <path d="M3.81635645,7.56965719 L8.16965719,3.2314421 C8.40730575,2.97905527 8.40730575,2.5925352 8.16965719,2.35488664 C7.93200864,2.11723809 7.53075029,2.11723809 7.29310173,2.35488664 L3.38562155,6.26236683 L-0.521858638,2.35488664 C-0.774245176,2.11723809 -1.16076524,2.11723809 -1.3984138,2.35488664 C-1.63606236,2.5925352 -1.63606238,2.97906519 -1.3984138,3.2314421 L2.939801,7.56965719 C3.19218783,7.80730575 3.5787079,7.80730575 3.81635645,7.56965719 Z" id="Fill-1" stroke="#FFFFFF" fill="#FFFFFF" transform="translate(3.385622, 4.962272) rotate(-90.000000) translate(-3.385622, -4.962272) "></path>
        <path d="M3.81635645,37.5696572 L8.16965719,33.2314421 C8.40730575,32.9790553 8.40730575,32.5925352 8.16965719,32.3548866 C7.93200864,32.1172381 7.53075029,32.1172381 7.29310173,32.3548866 L3.38562155,36.2623668 L-0.521858638,32.3548866 C-0.774245176,32.1172381 -1.16076524,32.1172381 -1.3984138,32.3548866 C-1.63606236,32.5925352 -1.63606238,32.9790652 -1.3984138,33.2314421 L2.939801,37.5696572 C3.19218783,37.8073057 3.5787079,37.8073057 3.81635645,37.5696572 Z" id="Fill-1" stroke="#273885" fill="#273885" transform="translate(3.385622, 34.962272) rotate(-90.000000) translate(-3.385622, -34.962272) "></path>
        <path d="M3.81635645,67.5696572 L8.16965719,63.2314421 C8.40730575,62.9790553 8.40730575,62.5925352 8.16965719,62.3548866 C7.93200864,62.1172381 7.53075029,62.1172381 7.29310173,62.3548866 L3.38562155,66.2623668 L-0.521858638,62.3548866 C-0.774245176,62.1172381 -1.16076524,62.1172381 -1.3984138,62.3548866 C-1.63606236,62.5925352 -1.63606238,62.9790652 -1.3984138,63.2314421 L2.939801,67.5696572 C3.19218783,67.8073057 3.5787079,67.8073057 3.81635645,67.5696572 Z" id="Fill-1" stroke="#54585A" fill="#54585A" transform="translate(3.385622, 64.962272) rotate(-90.000000) translate(-3.385622, -64.962272) "></path>
        <path d="M3.81635645,97.5696572 L8.16965719,93.2314421 C8.40730575,92.9790553 8.40730575,92.5925352 8.16965719,92.3548866 C7.93200864,92.1172381 7.53075029,92.1172381 7.29310173,92.3548866 L3.38562155,96.2623668 L-0.521858638,92.3548866 C-0.774245176,92.1172381 -1.16076524,92.1172381 -1.3984138,92.3548866 C-1.63606236,92.5925352 -1.63606238,92.9790652 -1.3984138,93.2314421 L2.939801,97.5696572 C3.19218783,97.8073057 3.5787079,97.8073057 3.81635645,97.5696572 Z" id="Fill-1" stroke="#87C300" fill="#87C300" opacity="0.871907552" transform="translate(3.385622, 94.962272) rotate(-90.000000) translate(-3.385622, -94.962272) "></path>
    </g>
</svg>