<?xml version="1.0" encoding="UTF-8" standalone="no"?>
<!DOCTYPE svg PUBLIC "-//W3C//DTD SVG 1.1//EN" "http://www.w3.org/Graphics/SVG/1.1/DTD/svg11.dtd">
<svg width="100%" height="100%" viewBox="0 0 1876 825" version="1.1" xmlns="http://www.w3.org/2000/svg" xmlns:xlink="http://www.w3.org/1999/xlink" xml:space="preserve" xmlns:serif="http://www.serif.com/" style="fill-rule:evenodd;clip-rule:evenodd;stroke-linejoin:round;stroke-miterlimit:2;">
    <g transform="matrix(1,0,0,1,-1074.25,-30533.9)">
        <g transform="matrix(8.33333,0,0,8.33333,0,30375)">
            <g id="buckthorn-logo">
                <g transform="matrix(0.606931,-0.794754,-0.794754,-0.606931,358.362,52.8062)">
                    <rect x="-21.768" y="-10.118" width="1.311" height="54.132" style="fill:rgb(135,195,0);"/>
                </g>
                <g transform="matrix(1,0,0,1,136.263,86.9483)">
                    <path d="M0,-1.064L0,11.605L5.006,11.605C6.364,11.605 7.53,11.192 8.505,10.365C9.981,9.096 10.721,7.324 10.721,5.049C10.721,4.075 10.543,3.174 10.188,2.347C9.273,0.074 7.472,-1.064 4.784,-1.064L0,-1.064ZM0,-12.67L0,-2.26L3.942,-2.26C5.123,-2.26 6.157,-2.54 7.044,-3.102C8.55,-4.076 9.303,-5.522 9.303,-7.442C9.303,-7.856 9.273,-8.254 9.214,-8.639C8.8,-11.326 7.072,-12.67 4.031,-12.67L0,-12.67ZM12.847,-5.759C12.049,-3.869 10.587,-2.525 8.461,-1.728C9.73,-1.491 10.854,-1.093 11.828,-0.532C13.924,0.768 14.973,2.599 14.973,4.961C14.973,6.467 14.515,7.855 13.6,9.125C11.828,11.547 9.037,12.757 5.228,12.757L-7.354,12.757L-7.354,11.605L-3.81,11.605L-3.81,-12.67L-7.354,-12.67L-7.354,-13.821L5.095,-13.821C7.044,-13.821 8.712,-13.481 10.101,-12.803C12.227,-11.71 13.289,-10.041 13.289,-7.797C13.289,-7.147 13.142,-6.468 12.847,-5.759" style="fill-rule:nonzero;"/>
                </g>
                <g transform="matrix(1,0,0,1,176.486,82.3851)">
                    <path d="M0,16.257C0.443,16.317 0.664,16.671 0.664,17.32L-5.582,17.32L-5.892,12.802C-6.217,13.629 -6.645,14.382 -7.176,15.061C-8.594,16.863 -10.41,17.763 -12.625,17.763C-16.818,17.734 -18.931,15.194 -18.96,10.144L-18.96,-0.399L-22.37,-0.399L-22.37,-1.506L-15.637,-1.506L-15.637,10.809C-15.637,11.281 -15.608,11.724 -15.549,12.137C-15.165,14.618 -13.762,15.859 -11.34,15.859C-10.454,15.859 -9.598,15.578 -8.771,15.017C-6.91,13.777 -5.98,11.827 -5.98,9.17L-5.98,-0.399L-9.612,-0.399L-9.612,-1.506L-2.658,-1.506L-2.658,16.213L-0.443,16.213C-0.266,16.213 -0.118,16.228 0,16.257" style="fill-rule:nonzero;"/>
                </g>
                <g transform="matrix(1,0,0,1,181.226,95.3202)">
                    <path d="M0,-10.056C1.564,-13.274 4.325,-14.884 8.283,-14.884C9.878,-14.884 11.354,-14.544 12.713,-13.866C14.633,-12.891 15.593,-11.65 15.593,-10.144C15.593,-9.967 15.563,-9.775 15.504,-9.568C15.238,-8.682 14.603,-8.268 13.6,-8.328C13.245,-8.357 12.919,-8.446 12.625,-8.594C12.151,-8.889 11.827,-9.627 11.65,-10.809C11.562,-11.311 11.487,-11.68 11.429,-11.916C11.104,-13.157 10.144,-13.777 8.549,-13.777C7.515,-13.777 6.57,-13.511 5.714,-12.979C3.677,-11.68 2.657,-9.096 2.657,-5.227C2.657,-3.041 3.101,-1.152 3.986,0.443C5.167,2.54 6.807,3.588 8.903,3.588C9.14,3.588 9.376,3.573 9.612,3.544C12.122,3.308 13.924,2.023 15.017,-0.31L16.168,0.089C15.961,0.591 15.681,1.093 15.327,1.595C13.761,3.751 11.443,4.828 8.372,4.828C6.305,4.828 4.459,4.282 2.835,3.189C0.206,1.418 -1.107,-1.255 -1.107,-4.828C-1.107,-6.778 -0.739,-8.52 0,-10.056" style="fill-rule:nonzero;"/>
                </g>
                <g transform="matrix(1,0,0,1,208.07,71.9751)">
                    <path d="M0,26.667C0.443,26.727 0.665,27.081 0.665,27.73L-9.081,27.73L-9.081,26.623C-8.077,26.623 -7.354,26.549 -6.91,26.401C-6.143,26.136 -5.759,25.324 -5.759,23.965L-5.759,0.044L-9.081,0.044L-9.081,-1.063L-2.436,-1.063L-2.436,18.295L6.512,10.011L3.189,10.011L3.189,8.904L10.721,8.904C10.721,9.052 10.705,9.199 10.676,9.347C10.616,9.79 10.263,10.011 9.613,10.011C9.317,10.011 9.052,10.041 8.815,10.1C8.284,10.218 7.501,10.764 6.468,11.739L2.304,15.637L9.436,26.623L11.03,26.623C11.208,26.623 11.355,26.638 11.474,26.667C11.916,26.727 12.138,27.081 12.138,27.73L6.246,27.73L0,17.808L-2.436,20.067L-2.436,26.623L-0.442,26.623C-0.266,26.623 -0.118,26.638 0,26.667" style="fill-rule:nonzero;"/>
                </g>
                <g transform="matrix(1,0,0,1,220.651,95.0539)">
                    <path d="M0,-14.175L3.101,-14.175L3.101,-18.383L6.423,-19.314L6.423,-14.175L13.289,-14.175L13.289,-13.068L6.423,-13.068L6.423,0.399C6.452,2.614 7.265,3.751 8.859,3.81C10.277,3.604 11.354,2.275 12.094,-0.177L13.289,0.045L13.289,0.133C12.609,3.471 10.912,5.139 8.195,5.139C5.006,5.021 3.307,3.117 3.101,-0.575L3.101,-13.068L0,-13.068L0,-14.175Z" style="fill-rule:nonzero;"/>
                </g>
                <g transform="matrix(1,0,0,1,244.882,71.9751)">
                    <path d="M0,26.667C0.443,26.727 0.665,27.081 0.665,27.73L-9.302,27.73L-9.302,26.623C-8.299,26.623 -7.574,26.549 -7.132,26.401C-6.364,26.136 -5.979,25.324 -5.979,23.965L-5.979,0.044L-9.302,0.044L-9.302,-1.063L-2.657,-1.063L-2.657,13.156C-2.333,12.3 -1.86,11.533 -1.24,10.853C0.236,9.258 2.067,8.461 4.253,8.461C5.198,8.461 6.084,8.668 6.911,9.081C9.037,10.233 10.101,12.418 10.101,15.637L10.101,26.623L12.315,26.623C12.492,26.623 12.64,26.638 12.759,26.667C13.201,26.727 13.423,27.081 13.423,27.73L3.677,27.73L3.677,26.623C4.681,26.623 5.39,26.549 5.804,26.401C6.453,26.136 6.778,25.324 6.778,23.965L6.778,15.637C6.778,14.663 6.615,13.777 6.291,12.979C5.582,11.296 4.326,10.454 2.525,10.454C1.698,10.454 0.901,10.706 0.134,11.207C-1.728,12.418 -2.657,14.368 -2.657,17.055L-2.657,26.623L-0.442,26.623C-0.266,26.623 -0.118,26.638 0,26.667" style="fill-rule:nonzero;"/>
                </g>
                <g transform="matrix(1,0,0,1,265.304,86.8591)">
                    <path d="M0,6.866C0.768,10.41 2.643,12.182 5.626,12.182C6.187,12.182 6.733,12.109 7.265,11.96C9.981,11.104 11.34,8.195 11.34,3.234C11.34,2.378 11.296,1.595 11.207,0.886C10.676,-3.248 8.771,-5.316 5.493,-5.316C4.784,-5.316 4.104,-5.197 3.455,-4.961C0.944,-3.957 -0.311,-1.166 -0.311,3.411C-0.311,4.681 -0.207,5.833 0,6.866M10.986,-4.873C13.732,-3.071 15.105,-0.31 15.105,3.411C15.105,6.158 14.249,8.447 12.536,10.277C10.676,12.286 8.328,13.289 5.493,13.289C3.484,13.289 1.653,12.729 0,11.606C-2.718,9.745 -4.075,6.955 -4.075,3.234C-4.075,0.547 -3.205,-1.698 -1.462,-3.5C0.428,-5.448 2.791,-6.423 5.626,-6.423C7.575,-6.423 9.361,-5.906 10.986,-4.873" style="fill-rule:nonzero;"/>
                </g>
                <g transform="matrix(1,0,0,1,293.876,81.6761)">
                    <path d="M0,16.966C0.442,17.026 0.664,17.38 0.664,18.029L-10.277,18.029L-10.277,16.922C-9.273,16.922 -8.55,16.848 -8.106,16.7C-7.339,16.435 -6.955,15.623 -6.955,14.264L-6.955,0.31L-10.277,0.31L-10.277,-0.797L-3.854,-0.797L-3.677,3.588C-3.294,2.702 -2.776,1.905 -2.126,1.196C-0.738,-0.31 0.842,-1.063 2.613,-1.063C2.879,-1.063 3.159,-1.033 3.455,-0.974C4.812,-0.679 5.492,0.133 5.492,1.462C5.492,1.639 5.463,1.817 5.404,1.994C5.167,2.85 4.606,3.278 3.721,3.278C3.544,3.278 3.366,3.249 3.189,3.19C2.775,3.072 2.332,2.599 1.86,1.772C1.446,1.034 0.989,0.665 0.487,0.665C0.044,0.695 -0.503,1.019 -1.152,1.639C-2.806,3.264 -3.633,5.42 -3.633,8.107L-3.633,16.922L-0.443,16.922C-0.266,16.922 -0.119,16.937 0,16.966" style="fill-rule:nonzero;"/>
                </g>
                <g transform="matrix(1,0,0,1,310,81.4991)">
                    <path d="M0,17.143C0.443,17.203 0.665,17.557 0.665,18.206L-9.081,18.206L-9.081,17.099C-8.077,17.099 -7.354,17.025 -6.91,16.877C-6.143,16.612 -5.759,15.8 -5.759,14.441L-5.759,0.487L-9.081,0.487L-9.081,-0.62L-2.657,-0.62L-2.48,3.81C-2.155,2.983 -1.728,2.23 -1.195,1.55C0.222,-0.192 2.022,-1.063 4.209,-1.063C5.301,-1.063 6.319,-0.782 7.266,-0.221C9.303,1.049 10.321,3.161 10.321,6.113L10.321,17.099L12.536,17.099C12.714,17.099 12.861,17.114 12.979,17.143C13.423,17.203 13.645,17.557 13.645,18.206L3.677,18.206L3.677,17.099C4.681,17.099 5.404,17.025 5.848,16.877C6.615,16.612 6.999,15.8 6.999,14.441L6.999,5.67C6.999,4.814 6.866,4.046 6.601,3.367C5.951,1.683 4.725,0.842 2.924,0.842C2.097,0.842 1.285,1.093 0.487,1.595C-1.373,2.806 -2.348,4.784 -2.436,7.531L-2.436,17.099L-0.442,17.099C-0.266,17.099 -0.118,17.114 0,17.143" style="fill-rule:nonzero;"/>
                </g>
                <g transform="matrix(1,0,0,1,205.885,114.552)">
                    <path d="M0,-0.404C0.382,-0.404 0.671,-0.484 0.866,-0.643C1.061,-0.802 1.158,-1.045 1.158,-1.371C1.158,-1.697 1.061,-1.94 0.866,-2.099C0.671,-2.259 0.382,-2.339 0,-2.339L-1.106,-2.339L-1.106,-0.404L0,-0.404ZM0.286,-3.71C0.86,-3.71 1.35,-3.617 1.754,-3.433C2.157,-3.249 2.466,-2.983 2.679,-2.636C2.891,-2.289 2.997,-1.867 2.997,-1.371C2.997,-0.875 2.891,-0.453 2.679,-0.106C2.466,0.241 2.157,0.507 1.754,0.691C1.35,0.875 0.86,0.968 0.286,0.968L-1.106,0.968L-1.106,3.306L-2.935,3.306L-2.935,-3.71L0.286,-3.71Z" style="fill:rgb(156,156,155);fill-rule:nonzero;"/>
                </g>
                <g transform="matrix(1,0,0,1,0,-851.3)">
                    <path d="M214.003,966.33L217.904,966.33L217.904,967.574L214.003,967.574L214.003,966.33ZM212.397,969.158L214.863,962.142L217.054,962.142L219.509,969.158L217.628,969.158L216.256,964.651L215.948,963.545L215.927,963.545L215.64,964.64L214.236,969.158L212.397,969.158Z" style="fill:rgb(156,156,155);fill-rule:nonzero;"/>
                </g>
                <g transform="matrix(1,0,0,1,228.103,114.318)">
                    <path d="M0,0.064L2.243,3.54L0.223,3.54L-1.573,0.468L0,0.064ZM-1.074,-0.318C-0.72,-0.318 -0.454,-0.389 -0.276,-0.531C-0.1,-0.673 -0.011,-0.899 -0.011,-1.211C-0.011,-1.516 -0.1,-1.739 -0.276,-1.881C-0.454,-2.023 -0.72,-2.094 -1.074,-2.094L-2.371,-2.094L-2.371,-0.318L-1.074,-0.318ZM-0.818,-3.476C0.018,-3.476 0.668,-3.279 1.132,-2.886C1.596,-2.492 1.828,-1.97 1.828,-1.318C1.828,-0.602 1.598,-0.056 1.138,0.319C0.677,0.695 0.028,0.883 -0.808,0.883L-0.979,0.979L-2.371,0.979L-2.371,3.54L-4.167,3.54L-4.167,-3.476L-0.818,-3.476Z" style="fill:rgb(156,156,155);fill-rule:nonzero;"/>
                </g>
                <g transform="matrix(1,0,0,1,240.73,117.858)">
                    <path d="M0,-7.016L0,-5.602L-2.285,-5.602L-2.285,0L-4.113,0L-4.113,-5.602L-6.409,-5.602L-6.409,-7.016L0,-7.016Z" style="fill:rgb(156,156,155);fill-rule:nonzero;"/>
                </g>
                <g transform="matrix(1,0,0,1,251.584,117.858)">
                    <path d="M0,-7.016L0,0L-2.03,0L-4.209,-3.795L-4.74,-4.837L-4.751,-4.837L-4.709,-3.54L-4.709,0L-6.324,0L-6.324,-7.016L-4.294,-7.016L-2.115,-3.221L-1.584,-2.18L-1.573,-2.18L-1.615,-3.476L-1.615,-7.016L0,-7.016Z" style="fill:rgb(156,156,155);fill-rule:nonzero;"/>
                </g>
                <g transform="matrix(1,0,0,1,256.709,110.842)">
                    <path d="M0,7.016L0,0L5.464,0L5.464,1.414L1.828,1.414L1.828,2.839L4.72,2.839L4.72,4.167L1.828,4.167L1.828,5.602L5.603,5.602L5.603,7.016L0,7.016Z" style="fill:rgb(156,156,155);fill-rule:nonzero;"/>
                </g>
                <g transform="matrix(1,0,0,1,271.223,114.318)">
                    <path d="M0,0.064L2.243,3.54L0.223,3.54L-1.573,0.468L0,0.064ZM-1.074,-0.318C-0.72,-0.318 -0.454,-0.389 -0.276,-0.531C-0.1,-0.673 -0.011,-0.899 -0.011,-1.211C-0.011,-1.516 -0.1,-1.739 -0.276,-1.881C-0.454,-2.023 -0.72,-2.094 -1.074,-2.094L-2.371,-2.094L-2.371,-0.318L-1.074,-0.318ZM-0.818,-3.476C0.018,-3.476 0.668,-3.279 1.132,-2.886C1.596,-2.492 1.828,-1.97 1.828,-1.318C1.828,-0.602 1.598,-0.056 1.138,0.319C0.677,0.695 0.028,0.883 -0.808,0.883L-0.979,0.979L-2.371,0.979L-2.371,3.54L-4.167,3.54L-4.167,-3.476L-0.818,-3.476Z" style="fill:rgb(156,156,155);fill-rule:nonzero;"/>
                </g>
                <g transform="matrix(1,0,0,1,280.672,117.965)">
                    <path d="M0,-7.229C0.651,-7.229 1.228,-7.128 1.727,-6.926C2.227,-6.724 2.66,-6.428 3.029,-6.039L2.146,-4.858C1.842,-5.177 1.515,-5.417 1.164,-5.576C0.812,-5.735 0.414,-5.815 -0.032,-5.815C-0.295,-5.815 -0.507,-5.787 -0.67,-5.73C-0.833,-5.673 -0.95,-5.595 -1.021,-5.496C-1.092,-5.397 -1.127,-5.284 -1.127,-5.156C-1.127,-5.007 -1.059,-4.881 -0.92,-4.779C-0.782,-4.676 -0.557,-4.589 -0.245,-4.518L0.935,-4.252C1.637,-4.089 2.15,-3.852 2.477,-3.541C2.803,-3.229 2.966,-2.814 2.966,-2.296C2.966,-1.8 2.838,-1.38 2.583,-1.037C2.327,-0.693 1.977,-0.435 1.53,-0.261C1.084,-0.087 0.573,0 0,0C-0.468,0 -0.915,-0.052 -1.34,-0.155C-1.765,-0.257 -2.147,-0.404 -2.488,-0.596C-2.828,-0.787 -3.115,-1.007 -3.349,-1.255L-2.467,-2.477C-2.29,-2.271 -2.071,-2.089 -1.812,-1.93C-1.555,-1.771 -1.271,-1.645 -0.963,-1.552C-0.654,-1.46 -0.341,-1.414 -0.021,-1.414C0.227,-1.414 0.434,-1.439 0.601,-1.489C0.767,-1.538 0.889,-1.613 0.967,-1.712C1.045,-1.811 1.084,-1.928 1.084,-2.062C1.084,-2.211 1.03,-2.337 0.925,-2.44C0.818,-2.542 0.616,-2.629 0.318,-2.701L-0.979,-2.987C-1.375,-3.08 -1.728,-3.202 -2.036,-3.354C-2.345,-3.506 -2.587,-3.712 -2.765,-3.971C-2.941,-4.229 -3.03,-4.554 -3.03,-4.943C-3.03,-5.383 -2.909,-5.774 -2.669,-6.118C-2.428,-6.462 -2.08,-6.733 -1.627,-6.931C-1.174,-7.13 -0.631,-7.229 0,-7.229" style="fill:rgb(156,156,155);fill-rule:nonzero;"/>
                </g>
                <g transform="matrix(1,0,0,1,296.925,112.256)">
                    <path d="M0,4.188L3.519,4.188L3.519,5.602L-1.828,5.602L-1.828,-1.414L0,-1.414L0,4.188Z" style="fill:rgb(156,156,155);fill-rule:nonzero;"/>
                </g>
                <g transform="matrix(1,0,0,1,306.81,112.256)">
                    <path d="M0,4.188L3.519,4.188L3.519,5.602L-1.828,5.602L-1.828,-1.414L0,-1.414L0,4.188Z" style="fill:rgb(156,156,155);fill-rule:nonzero;"/>
                </g>
                <g transform="matrix(1,0,0,1,317.803,114.552)">
                    <path d="M0,-0.404C0.382,-0.404 0.671,-0.484 0.866,-0.643C1.061,-0.802 1.158,-1.045 1.158,-1.371C1.158,-1.697 1.061,-1.94 0.866,-2.099C0.671,-2.259 0.382,-2.339 0,-2.339L-1.106,-2.339L-1.106,-0.404L0,-0.404ZM0.286,-3.71C0.86,-3.71 1.35,-3.617 1.754,-3.433C2.157,-3.249 2.466,-2.983 2.679,-2.636C2.891,-2.289 2.997,-1.867 2.997,-1.371C2.997,-0.875 2.891,-0.453 2.679,-0.106C2.466,0.241 2.157,0.507 1.754,0.691C1.35,0.875 0.86,0.968 0.286,0.968L-1.106,0.968L-1.106,3.306L-2.935,3.306L-2.935,-3.71L0.286,-3.71Z" style="fill:rgb(156,156,155);fill-rule:nonzero;"/>
                </g>
                <g transform="matrix(-0.872837,0.488013,0.488013,0.872837,302.202,41.7852)">
                    <rect x="-18.137" y="-4.725" width="1.3" height="69.34" style="fill:rgb(0,118,83);"/>
                </g>
                <g transform="matrix(-1,0,0,1,664.158,-961.194)">
                    <rect x="331.435" y="980.256" width="1.288" height="80.682" style="fill:rgb(39,56,133);"/>
                </g>
            </g>
        </g>
    </g>
</svg>
