<?xml version="1.0" encoding="UTF-8" standalone="no"?>
<!DOCTYPE svg PUBLIC "-//W3C//DTD SVG 1.1//EN" "http://www.w3.org/Graphics/SVG/1.1/DTD/svg11.dtd">
<svg width="100%" height="100%" viewBox="0 0 523 752" version="1.1" xmlns="http://www.w3.org/2000/svg" xmlns:xlink="http://www.w3.org/1999/xlink" xml:space="preserve" xmlns:serif="http://www.serif.com/" style="fill-rule:evenodd;clip-rule:evenodd;stroke-linecap:round;stroke-linejoin:round;stroke-miterlimit:10;">
    <g transform="matrix(1,0,0,1,-5052.17,-7049.44)">
        <g transform="matrix(8.33333,0,0,8.33333,0,0)">
            <g transform="matrix(1,0,0,1,650.396,916.797)">
                <path d="M0,-26.211L0,-7.762C0,-5.087 -1.679,-2.82 -4.055,-1.956L-4.055,12.607C-4.055,15.726 -6.586,18.257 -9.716,18.257L-16.026,18.257C-19.145,18.257 -21.676,15.726 -21.676,12.607L-21.676,-1.956C-24.051,-2.82 -25.743,-5.087 -25.743,-7.762L-25.743,-26.211C-25.743,-29.63 -22.96,-32.413 -19.529,-32.413L-16.782,-32.413C-18.449,-33.624 -19.541,-35.592 -19.541,-37.811C-19.541,-41.493 -16.554,-44.468 -12.871,-44.468C-9.189,-44.468 -6.202,-41.493 -6.202,-37.811C-6.202,-35.592 -7.293,-33.624 -8.961,-32.413L-6.202,-32.413C-2.771,-32.413 0,-29.63 0,-26.211Z" style="fill:none;fill-rule:nonzero;stroke:rgb(39,56,133);stroke-width:2px;"/>
            </g>
        </g>
        <g transform="matrix(8.33333,0,0,8.33333,0,0)">
            <g transform="matrix(1,0,0,1,625.805,846.932)">
                <path d="M0,15.846C0.943,13.621 3.152,12.055 5.725,12.055L8.472,12.055C6.805,10.844 5.713,8.877 5.713,6.658C5.713,2.975 8.7,0 12.383,0C16.065,0 19.052,2.975 19.052,6.658C19.052,8.877 17.961,10.844 16.293,12.055L19.052,12.055C20.768,12.055 22.318,12.751 23.44,13.874" style="fill:none;fill-rule:nonzero;stroke:rgb(197,197,196);stroke-width:2px;"/>
            </g>
        </g>
        <g transform="matrix(8.33333,0,0,8.33333,0,0)">
            <g transform="matrix(1,0,0,1,623.286,861.986)">
                <path d="M0,62.725L-6.31,62.725C-9.429,62.725 -11.96,60.194 -11.96,57.075L-11.96,42.512C-14.335,41.649 -16.026,39.381 -16.026,36.706L-16.026,18.257C-16.026,14.839 -13.243,12.056 -9.812,12.056L-7.065,12.056C-8.733,10.844 -9.824,8.877 -9.824,6.657C-9.824,2.975 -6.837,0 -3.155,0C0.528,0 3.515,2.975 3.515,6.657C3.515,8.877 2.423,10.844 0.756,12.056L3.515,12.056" style="fill:none;fill-rule:nonzero;stroke:rgb(0,118,83);stroke-width:2px;"/>
            </g>
        </g>
        <g transform="matrix(8.33333,0,0,8.33333,0,0)">
            <g transform="matrix(1,0,0,1,648.489,912.655)">
                <path d="M0,-38.613L2.747,-38.613C1.08,-39.825 -0.012,-41.792 -0.012,-44.011C-0.012,-47.694 2.975,-50.669 6.658,-50.669C10.34,-50.669 13.327,-47.694 13.327,-44.011C13.327,-41.792 12.236,-39.825 10.568,-38.613L13.327,-38.613C16.758,-38.613 19.529,-35.83 19.529,-32.411L19.529,-13.962C19.529,-11.287 17.849,-9.02 15.474,-8.156L15.474,6.407C15.474,9.525 12.943,12.056 9.812,12.056L3.503,12.056" style="fill:none;fill-rule:nonzero;stroke:rgb(135,195,0);stroke-width:2px;"/>
            </g>
        </g>
    </g>
</svg>
