<?xml version="1.0" encoding="UTF-8" standalone="no"?>
<!DOCTYPE svg PUBLIC "-//W3C//DTD SVG 1.1//EN" "http://www.w3.org/Graphics/SVG/1.1/DTD/svg11.dtd">
<svg width="100%" height="100%" viewBox="0 0 450 450" version="1.1" xmlns="http://www.w3.org/2000/svg" xmlns:xlink="http://www.w3.org/1999/xlink" xml:space="preserve" xmlns:serif="http://www.serif.com/" style="fill-rule:evenodd;clip-rule:evenodd;stroke-linejoin:round;stroke-miterlimit:2;">
    <g transform="matrix(1,0,0,1,-44148.5,-37551)">
        <g transform="matrix(8.33333,0,0,8.33333,36035.4,30375)">
            <g opacity="0.5">
                <g transform="matrix(-1,0,0,1,2001.14,696.248)">
                    <rect x="973.571" y="164.876" width="54" height="54" style="fill:rgb(85,85,85);"/>
                </g>
                <g transform="matrix(1,0,0,1,992.893,882.434)">
                    <path d="M0,11.112C-3.85,12.442 -15.423,16.371 -12.721,22.788C-12.206,24.011 -9.912,25.55 -8.68,25.903C-2.494,27.673 2.486,16.833 4.55,12.729C6.329,9.191 7.796,5.466 8.724,1.612C9.504,-1.624 10.769,-6.831 9.729,-10.075C9.222,-11.66 7.237,-14.088 5.38,-14.562C-2.462,-16.561 6.394,0.168 7.595,2.124C10.14,6.272 12.71,10.164 16.612,13.115C19.092,14.99 24.594,19.162 27.466,16.017C29.937,13.314 26.425,11.153 24.511,9.881C17.638,5.31 6.623,9.238 -0.627,11.241C0.136,11.03 1.757,13.839 2.564,13.615C9.834,11.607 20.69,7.826 27.642,12.216C26.578,11.425 25.515,10.633 24.45,9.842C25.564,11.596 24.845,13.606 22.95,14.348C20.56,15.286 17.331,13.575 15.505,12.249C16.41,12.927 17.314,13.607 18.22,14.287C13.958,10.531 10.848,5.101 8.255,0.1C6.878,-2.554 2.044,-12.698 8.54,-12.206C7.548,-12.941 6.555,-13.676 5.562,-14.41C8.138,-12.419 6.429,-5.085 5.896,-2.408C5.068,1.76 3.587,5.771 1.733,9.586C-0.46,14.098 -5.592,25.515 -12.344,23.379C-11.279,24.171 -10.216,24.962 -9.152,25.754C-13.267,19.311 -0.505,14.763 3.19,13.486C2.508,13.722 0.729,10.86 0,11.112" style="fill:white;fill-rule:nonzero;"/>
                </g>
            </g>
        </g>
    </g>
</svg>
