<?xml version="1.0" encoding="UTF-8"?>
<svg width="20px" height="19px" viewBox="0 0 20 19" version="1.1" xmlns="http://www.w3.org/2000/svg" xmlns:xlink="http://www.w3.org/1999/xlink">
    <!-- Generator: Sketch 53.2 (72643) - https://sketchapp.com -->
    <title>Combined Shape</title>
    <desc>Created with Sketch.</desc>
    <g id="Page-1" stroke="none" stroke-width="1" fill="none" fill-rule="evenodd">
        <g id="Artboard" transform="translate(-16.000000, -6.000000)" fill="#FFFFFF" fill-rule="nonzero">
            <g id="Group-4" transform="translate(16.000000, 6.000000)">
                <path d="M8.80738585,9.93663838 C8.65806525,9.72122992 8.52110476,9.49359999 8.39798505,9.25422438 C6.87834369,6.29798895 8.04224519,2.66993817 10.9972411,1.15029681 C11.8785339,0.696635526 12.8193233,0.4822 13.7452386,0.4822 C15.9292582,0.4822 18.0351886,1.67461027 19.1024082,3.74955287 C20.6232891,6.7057883 19.4593876,10.3338391 16.5031521,11.85472 C15.6218593,12.3071417 14.6823094,12.5215773 13.7551547,12.5215773 C13.0356968,12.5215773 12.3244533,12.3920335 11.6559557,12.1440423 L13.1861536,10.6914554 C13.372961,10.716447 13.5629569,10.7292433 13.7551547,10.7292433 C14.429449,10.7292433 15.0777137,10.5705858 15.6825954,10.2594684 C17.755059,9.19472782 18.5743762,6.64133369 17.5083961,4.56887011 C16.7808028,3.15458725 15.3380111,2.27453393 13.7452386,2.27453393 C13.0721837,2.27453393 12.4226796,2.43319143 11.8177979,2.74430887 C9.74533428,3.81028895 8.92725655,6.36244356 9.99199711,8.43490714 C10.3160993,9.06437086 10.7811389,9.58770255 11.3377405,9.97481918 L11.1493215,10.1536817 L11.1637695,10.1685812 L2.00850981,18.761853 L0.774532491,17.461945 L8.80738585,9.93663838 Z" id="Combined-Shape"></path>
            </g>
        </g>
    </g>
</svg>