<?xml version="1.0" encoding="UTF-8"?>
<svg width="100px" height="21px" viewBox="0 0 100 21" version="1.1" xmlns="http://www.w3.org/2000/svg" xmlns:xlink="http://www.w3.org/1999/xlink">
    <!-- Generator: Sketch 53.2 (72643) - https://sketchapp.com -->
    <title>Artboard</title>
    <desc>Created with Sketch.</desc>
    <g id="Artboard" stroke="none" stroke-width="1" fill="none" fill-rule="evenodd">
        <g id="Group-3" transform="translate(-0.004883, 0.600000)" fill="#273885">
            <path d="M9.79872727,6.13224242 C8.65084848,6.13224242 7.71690909,7.06618182 7.71690909,8.21466667 C7.71690909,9.36193939 8.65084848,10.2958788 9.79872727,10.2958788 C10.9472121,10.2958788 11.8811515,9.36193939 11.8811515,8.21466667 C11.8811515,7.06618182 10.9472121,6.13224242 9.79872727,6.13224242" id="Fill-1"></path>
            <path d="M12.3218182,11.9957576 C11.6581818,12.6230303 10.9557576,14.029697 10.7884848,14.4442424 C10.3806061,15.5072727 10.1860606,16.0339394 10.1854545,16.0357576 L9.41272727,16.0363636 C9.41272727,16.0363636 9.26545455,15.6406061 8.82484848,14.4309091 C8.65272727,13.9569697 7.86242424,12.5266667 7.20484848,11.9424242 L7.1769697,11.9151515 C6.19151515,10.8557576 5.28,9.65818182 5.28,8.08121212 C5.28,5.58969697 7.30727273,3.56242424 9.79878788,3.56242424 C12.2909091,3.56242424 14.3181818,5.58969697 14.3181818,8.08121212 C14.3181818,9.38424242 13.6090909,10.7745455 12.3218182,11.9957576 M9.79939394,0 C4.38727273,0 0,4.38727273 0,9.79939394 C0,15.2115152 4.38727273,19.5987879 9.79939394,19.5987879 C15.2109091,19.5987879 19.5981818,15.2115152 19.5981818,9.79939394 C19.5981818,4.38727273 15.2109091,0 9.79939394,0" id="Fill-2"></path>
        </g>
        <path d="M53.9929956,15.8991664 L51.4418192,12.9908647 C51.4418192,12.9908647 52.1827061,12.5538302 52.4470971,12.85275 C52.7105017,13.1506832 54.2840231,14.9215114 54.2840231,14.9215114 C54.6776501,15.3664381 53.9929956,15.8991664 53.9929956,15.8991664 M51.6628027,17.0632763 C50.081389,16.1527056 49.0524343,15.1918216 48.0126276,13.8195531 C46.8721945,12.315089 46.0227889,9.84086223 45.7870073,8.24267745 C45.5088048,6.362344 45.5985794,5.41428501 45.6488926,5.13016327 C45.806738,4.2205791 47.7571154,4.07062596 47.7571154,4.07062596 L48.5867903,7.7977507 L47.7916441,7.7977507 C47.7916441,7.7977507 47.410842,7.83129285 47.6190006,8.31074829 C47.8261727,8.78921719 50.2796823,13.7810783 50.2796823,13.7810783 C50.2796823,13.7810783 50.4523258,14.1234055 50.7640704,13.8491491 C51.0748286,13.5758792 51.2237952,13.2503231 51.2237952,13.2503231 L53.770039,16.1398806 C53.770039,16.1398806 52.9166872,17.7864056 51.6628027,17.0632763 M48.9537809,4.19394268 C49.0642727,4.52443151 49.5713511,7.09632516 49.5713511,7.09632516 C49.6660583,7.55802299 48.9093869,7.8007103 48.9093869,7.8007103 L48.0678735,3.96802644 C48.0678735,3.96802644 48.841316,3.86345385 48.9537809,4.19394268 M49.9995067,0.6 C44.4768904,0.6 40,5.07689045 40,10.5995067 C40,16.122123 44.4768904,20.6 49.9995067,20.6 C55.5231096,20.6 60,16.122123 60,10.5995067 C60,5.07689045 55.5231096,0.6 49.9995067,0.6" id="Fill-1" fill="#007653"></path>
        <g id="Group-3" transform="translate(80.000000, 0.600000)" fill="#87C300">
            <path d="M10.3373333,8.0932381 C10.1868571,7.99704762 10.0001905,7.95038095 9.78019048,7.95038095 C9.5287619,7.95038095 9.30780952,8.01990476 9.11733333,8.15990476 C8.92685714,8.30180952 8.76114286,8.48657143 8.62019048,8.71704762 C8.48019048,8.94847619 8.37352381,9.19990476 8.304,9.47038095 C8.23352381,9.74180952 8.1992381,10.0027619 8.1992381,10.2541905 C8.1992381,10.5246667 8.24114286,10.7560952 8.32685714,10.9465714 C8.41257143,11.1370476 8.53733333,11.2827619 8.70304762,11.3827619 C8.8687619,11.4837143 9.06685714,11.5332381 9.29828571,11.5332381 C9.5992381,11.5332381 9.86304762,11.4132381 10.0887619,11.1722857 C10.3144762,10.9313333 10.4897143,10.6246667 10.6154286,10.2541905 C10.7411429,9.8827619 10.804,9.51038095 10.804,9.13990476 C10.804,8.88847619 10.7630476,8.67514286 10.6830476,8.49990476 C10.6030476,8.32371429 10.4878095,8.18847619 10.3373333,8.0932381" id="Fill-1"></path>
            <path d="M15.7428571,11.0666667 C15.5419048,11.6190476 15.2742857,12.0666667 14.9371429,12.4066667 C14.6009524,12.7485714 14.24,12.9990476 13.8533333,13.16 C13.4666667,13.32 13.087619,13.4009524 12.7161905,13.4009524 C12.0238095,13.4009524 11.4990476,13.2285714 11.1428571,12.8809524 C10.7866667,12.5352381 10.6180952,12.0857143 10.6390476,11.5333333 C10.4171429,12.0457143 10.0961905,12.447619 9.6752381,12.7390476 C9.25333333,13.0304762 8.79619048,13.1752381 8.30380952,13.1752381 C7.86285714,13.1752381 7.46857143,13.0628571 7.12190476,12.8361905 C6.77619048,12.6104762 6.5047619,12.2809524 6.30952381,11.8495238 C6.11333333,11.4180952 6.0152381,10.9066667 6.0152381,10.3142857 C6.0152381,9.80190476 6.09047619,9.30761905 6.24095238,8.83047619 C6.39238095,8.35333333 6.60761905,7.92190476 6.88857143,7.53619048 C7.16952381,7.14952381 7.51047619,6.84571429 7.91238095,6.6247619 C8.31428571,6.40380952 8.76571429,6.29333333 9.26761905,6.29333333 C9.55904762,6.29333333 9.83809524,6.34571429 10.1038095,6.45142857 C10.3695238,6.55714286 10.6009524,6.72095238 10.7961905,6.94095238 C10.992381,7.16095238 11.1247619,7.45333333 11.1961905,7.81428571 L11.5266667,6.42952381 L13.7257143,6.42952381 L12.7466667,10.7209524 C12.7161905,10.8419048 12.6914286,10.9542857 12.6714286,11.0590476 C12.6514286,11.1657143 12.6409524,11.267619 12.6409524,11.367619 C12.6409524,11.6390476 12.7066667,11.8304762 12.8371429,11.94 C12.967619,12.0504762 13.1380952,12.1057143 13.3485714,12.1057143 C13.62,12.1057143 13.8733333,12.0028571 14.1095238,11.7980952 C14.3447619,11.5914286 14.5352381,11.2704762 14.6819048,10.8333333 C14.8266667,10.3971429 14.9,9.83714286 14.9,9.15428571 C14.9,8.42190476 14.7838095,7.76095238 14.5533333,7.17428571 C14.3228571,6.58761905 13.9914286,6.08571429 13.56,5.66857143 C13.1285714,5.25238095 12.6161905,4.93619048 12.0238095,4.72 C11.4314286,4.50380952 10.7790476,4.39619048 10.0657143,4.39619048 C9.26285714,4.39619048 8.53047619,4.52190476 7.86666667,4.77238095 C7.2047619,5.02285714 6.63047619,5.38952381 6.14380952,5.87238095 C5.65619048,6.35428571 5.28285714,6.93047619 5.02095238,7.60285714 C4.76095238,8.27619048 4.62952381,9.02380952 4.62952381,9.84761905 C4.62952381,10.7 4.76571429,11.4457143 5.03714286,12.0828571 C5.30761905,12.7209524 5.68190476,13.2533333 6.15904762,13.6790476 C6.6352381,14.1057143 7.18761905,14.427619 7.8152381,14.6438095 C8.44190476,14.8590476 9.11238095,14.967619 9.8247619,14.967619 C10.5380952,14.967619 11.1219048,14.8790476 11.58,14.7028571 C12.0361905,14.5285714 12.4342857,14.3295238 12.7771429,14.1085714 L13.3342857,15.0428571 C13.0428571,15.2333333 12.7314286,15.4066667 12.4,15.5619048 C12.0695238,15.7171429 11.6866667,15.8428571 11.2552381,15.9380952 C10.8238095,16.0342857 10.312381,16.0819048 9.72,16.0819048 C8.79619048,16.0819048 7.9447619,15.9457143 7.16761905,15.6752381 C6.38952381,15.4038095 5.71142857,15.0019048 5.13428571,14.4695238 C4.55714286,13.9380952 4.11047619,13.2828571 3.79428571,12.5057143 C3.47809524,11.7266667 3.32,10.8419048 3.32,9.84761905 C3.32,8.88380952 3.48857143,8 3.82380952,7.19714286 C4.16095238,6.39428571 4.62952381,5.69809524 5.23238095,5.11142857 C5.8352381,4.52380952 6.5447619,4.07238095 7.36285714,3.7552381 C8.18190476,3.44 9.07714286,3.28190476 10.0504762,3.28190476 C10.9447619,3.28190476 11.7571429,3.42 12.4904762,3.69619048 C13.2228571,3.97238095 13.8561905,4.36571429 14.387619,4.87809524 C14.92,5.38952381 15.3285714,6 15.6152381,6.70761905 C15.9019048,7.4152381 16.0438095,8.20095238 16.0438095,9.06380952 C16.0438095,9.84761905 15.9438095,10.5152381 15.7428571,11.0666667 M16.5285714,2.8352381 C14.7,1.00666667 12.2695238,0 9.68285714,0 C4.34285714,0.000952380952 0,4.3447619 0,9.68285714 C0,15.02 4.34285714,19.3638095 9.68285714,19.3638095 C12.2695238,19.3638095 14.7,18.3561905 16.5285714,16.527619 C18.3590476,14.6990476 19.3647619,12.2685714 19.3638095,9.68285714 C19.3647619,7.09619048 18.3590476,4.6647619 16.5285714,2.8352381" id="Fill-2"></path>
        </g>
    </g>
</svg>