<?xml version="1.0" encoding="UTF-8" standalone="no"?>
<!DOCTYPE svg PUBLIC "-//W3C//DTD SVG 1.1//EN" "http://www.w3.org/Graphics/SVG/1.1/DTD/svg11.dtd">
<svg width="100%" height="100%" viewBox="0 0 450 450" version="1.1" xmlns="http://www.w3.org/2000/svg" xmlns:xlink="http://www.w3.org/1999/xlink" xml:space="preserve" xmlns:serif="http://www.serif.com/" style="fill-rule:evenodd;clip-rule:evenodd;stroke-linejoin:round;stroke-miterlimit:2;">
    <g transform="matrix(1,0,0,1,-44148.5,-36058)">
        <g transform="matrix(8.33333,0,0,8.33333,36035.4,30375)">
            <g transform="matrix(-1,0,0,1,2001.14,337.908)">
                <rect x="973.571" y="344.046" width="54" height="54" style="fill:rgb(148,193,31);"/>
            </g>
        </g>
        <g transform="matrix(8.33333,0,0,8.33333,36035.4,30375)">
            <g transform="matrix(1,0,0,1,992.893,703.265)">
                <path d="M0,11.11C-3.85,12.441 -15.423,16.37 -12.721,22.787C-12.206,24.009 -9.912,25.549 -8.68,25.902C-2.494,27.672 2.486,16.831 4.55,12.728C6.329,9.19 7.796,5.465 8.724,1.61C9.504,-1.626 10.769,-6.832 9.729,-10.077C9.222,-11.661 7.237,-14.089 5.38,-14.563C-2.462,-16.562 6.394,0.167 7.595,2.123C10.14,6.27 12.71,10.163 16.612,13.114C19.092,14.989 24.594,19.161 27.466,16.016C29.937,13.312 26.425,11.152 24.511,9.88C17.638,5.309 6.623,9.237 -0.627,11.24C0.136,11.029 1.757,13.837 2.564,13.614C9.834,11.606 20.69,7.825 27.642,12.215C26.578,11.424 25.515,10.632 24.45,9.841C25.564,11.595 24.845,13.605 22.95,14.347C20.56,15.284 17.331,13.574 15.505,12.248C16.41,12.926 17.314,13.606 18.22,14.285C13.958,10.53 10.848,5.1 8.255,0.098C6.878,-2.556 2.044,-12.7 8.54,-12.207C7.548,-12.943 6.555,-13.677 5.562,-14.411C8.138,-12.42 6.429,-5.086 5.896,-2.409C5.068,1.759 3.587,5.77 1.733,9.585C-0.46,14.096 -5.592,25.514 -12.344,23.378C-11.279,24.17 -10.216,24.961 -9.152,25.753C-13.267,19.31 -0.505,14.762 3.19,13.485C2.508,13.72 0.729,10.858 0,11.11" style="fill:white;fill-rule:nonzero;"/>
            </g>
        </g>
    </g>
</svg>
